/* XPM */
static char * compose-up_xpm[] = {
"32 32 8 1",
" 	c #B2B2B2 s backgroundToolBarColor",
"B	c #330099",
"+	c #CCCCCC",
".	c #FFFFFF",
"_	c #888888",
"x	c #AAAAAA",
"%	c #EEEEEE",
"#	c #000000 s foregroundToolBarColor",
"                                ",
"                                ",
"      B                         ",
"   B  B  B                      ",
"    B B B                       ",
"     BBB                        ",
"  BBBBBBBBB                     ",
"     BBB                        ",
"    B B_B_BBBBBBBBBBBBBBB       ",
"   B  B_.B..............B_      ",
"      Bx.............BB.B_x     ",
"       x.............BB.B_x     ",
"       B....BBBBBB......B_x     ",
"       B................B_x     ",
"       B....BBBBB.......B_x     ",
"       B................B_x     ",
"       BBBBBBBBBBBBBBBBBB_x     ",
"        __________________x     ",
"         xxxxxxxxxxxxxxxxxx     ",
"                                ",
"                                ",
"                                ",
"         #   #                  ",
"         ##  #                  ",
"         # # #  ##  #   #       ",
"         #  ## #  # # # #       ",
"         #   # #### # # #       ",
"         #   # #    # # #       ",
"         #   #  ###  # #        ",
"                                ",
"                                ",
"                                "};
