/* XPM */
static char * followup_up_xpm[] = {
"32 32 8 1",
" 	c #B2B2B2 s backgroundToolBarColor",
"B	c #330099",
"_	c #888888",
"+	c #CCCCCC",
".	c #FFFFFF",
"%	c #EEEEEE",
"x	c #AAAAAA",
"#	c #000000 s foregroundToolBarColor",
"                                ",
"                                ",
"                                ",
"                                ",
"                                ",
"             B                  ",
"      B  B  BB_BBBBBBBBBBBBBB   ",
"     B% B% B.B..............B_  ",
"    B%xB%xB.%BBBBBB......BB.B_x ",
"   B%xB%xB.%+%%%%%B......BB.B_x ",
"  B%xB%xB.%+++++++BxBB......B_x ",
"   B%xB%xB%+++++++B_........B_x ",
"   _B%xB%xB%%BBBBBB_B.......B_x ",
"    _B%xB%xB%B______........B_x ",
"     _B%xB%xBB_BBBBBBBBBBBBBB_x ",
"      _______B________________x ",
"       xx xx __xxxxxxxxxxxxxxxx ",
"                                ",
"                                ",
"                                ",
"                                ",
"                                ",
"    ####     #  #               ",
"    #        #  #               ",
"    #    ##  #  #   ##  # # #   ",
"    ### #  # #  #  #  # # # #   ",
"    #   #  # #  #  #  # # # #   ",
"    #   #  # #  #  #  # # # #   ",
"    #    ##   #  #  ##   ###    ",
"                                ",
"                                ",
"                                "};
