/* XPM */
static char * forward_up_xpm[] = {
"32 32 8 1",
" 	c #B2B2B2 s backgroundToolBarColor",
"B	c #666666",
".	c #FFFFFF",
"_	c #888888",
"%	c #EEEEEE",
"+	c #CCCCCC",
"x	c #AAAAAA",
"#	c #808080",
"                                ",
"                                ",
"                                ",
"                                ",
"                                ",
"                       B        ",
"    BBBBBBBBBBBBBBBBBB BB       ",
"    B................B_B%B      ",
"    B.BB..........BBBBBB%%B     ",
"    B.............B%%%%%+%%B    ",
"    B....BBBBBB...B%++++++%%B   ",
"    B.............B%++++++%B_x  ",
"    B....BBBBB....BBBBBB+%B_x   ",
"    B..............____B%B_x    ",
"    BBBBBBBBBBBBBBBBBB_BB_x     ",
"     __________________B_x      ",
"      xxxxxxxxxxxxxxxxxxx       ",
"                                ",
"                                ",
"                                ",
"                                ",
"                                ",
"  ###                        #  ",
"  #                          #  ",
"  #   #  ##  #   #  #  ##   ##  ",
"  ## # # # # # # # # # # # # #  ",
"  #  # # #   # # # # # #   # #  ",
"  #  # # #   # # # # # #   # #  ",
"  #   #  #    # #   ## #    ##  ",
"                                ",
"                                ",
"                                "};
