/* XPM */
static char * getmail_up_xpm[] = {
"32 32 9 1",
" 	c #B2B2B2 s backgroundToolBarColor",
"B	c #666666",
".	c #FFFFFF",
"_	c #888888",
"+	c #CCCCCC",
"x	c #AAAAAA",
"%	c #EEEEEE",
":	c #F2F2F2",
"#	c #808080",
"                                ",
"                                ",
"       BBBBBBBBBBBBBBBBBB       ",
"       B................B_      ",
"       B.BB..........BB.B_#     ",
"       B.............BB.B_#     ",
"       B....BBBBBB......B_#     ",
"       B................B_#     ",
"       B....BBBBBB......B_#     ",
"       B.....B%%%B_.....B_#     ",
"       BBBBBBB++%B_#BBBBB_#     ",
"        _____B++%B_#______#     ",
"         ####B++%B_########     ",
"          BBBB++%BBBB           ",
"           B:++++%%B_#          ",
"            B:++%%B_#           ",
"             B:%%B_#            ",
"              B:B_#             ",
"               B_#              ",
"                #               ",
"                                ",
"                                ",
"          ###        #          ",
"         #   #       #          ",
"         #      ##  ###         ",
"         # ### #  #  #          ",
"         #   # ####  #          ",
"         #   # #     #          ",
"          ###   ###   #         ",
"                                ",
"                                ",
"                                "};
