/* XPM */
static char * quit_up_xpm[] = {
"32 32 5 1",
" 	c #B2B2B2 s backgroundToolBarColor",
"B	c #666666",
"_	c #888888",
"x	c #AAAAAA",
"#	c #808080",
"                                ",
"                                ",
"                                ",
"                                ",
"                                ",
"            BBBBBB              ",
"           BBBBBBBB_            ",
"          BBBxxxxBBBx           ",
"         BBBxBBBBxBBBx          ",
"         BBBxBBBBxBBBx          ",
"         BBBBBBBxBBBBx          ",
"         BBBBBBxBBBBBx          ",
"         BBBBBBxBBBBBx          ",
"         BBBBBBBBBBBBx          ",
"          BBBBBxBBBBx           ",
"           BBBBBBBBx            ",
"            BBBBBBx             ",
"             xxxxx              ",
"                                ",
"                                ",
"                                ",
"                                ",
"        #   #      #            ",
"        #   #      #            ",
"        #   #  ##  #  ###       ",
"        ##### #  # #  #  #      ",
"        #   # #### #  #  #      ",
"        #   # #    #  #  #      ",
"        #   #  ### ## ###       ",
"                      #         ",
"                      #         ",
"                                "};
