/* XPM */
static char * mime_up_xpm[] = {
"32 32 5 1",
" 	c #B2B2B2 s backgroundToolBarColor",
"B	c #330099",
"x	c #AAAAAA",
"+	c #CCCCCC",
"#	c #000000 s foregroundToolBarColor",
"                                ",
"                                ",
"                                ",
"     #              #      #    ",
"     #              #      #    ",
"    ###  ##  #   # ###    #     ",
"     #  #  #  # #   #     #     ",
"     #  ###    #    #     #     ",
"     #  #     # #   #    #      ",
"      #  ### #   #   #   #      ",
"                                ",
"                                ",
"            #                   ",
"            #                   ",
"       ###  #   ##  # ###       ",
"       #  # #     #   #  #      ",
"       #  # #   ### # #  #      ",
"       #  # #  #  # # #  #      ",
"       ###   #  ### # #  #      ",
"       #                        ",
"       #                        ",
"                                ",
"                                ",
"     +     +                    ",
"     xx   xx                    ",
"     + + + + + +x+x+x   x+      ",
"     x  x  x   x  +  + +  x     ",
"     +     + + +  x  x x+x+     ",
"     x     x x x  +  + +        ",
"     +     + + +  x  x  x+x     ",
"                                ",
"                                ",
"                                "};
