/* XPM */
static char * next_up_xpm[] = {
"32 32 7 1",
" 	c #B2B2B2 s backgroundToolBarColor",
"B	c #666666",
"%	c #EEEEEE",
"+	c #CCCCCC",
"_	c #888888",
"x	c #AAAAAA",
"#	c #808080",
"                                ",
"                                ",
"                                ",
"                                ",
"                                ",
"         B           B          ",
"         BB          BB         ",
"         B%B         B%B        ",
"    BBBBBB%%B   BBBBBB%%B       ",
"    B%%%%%+%%B  B%%%%%+%%B      ",
"    B%++++++%%B B%++++++%%B     ",
"    B%++++++%B_xB%++++++%B_x    ",
"    BBBBBB+%B_x BBBBBB+%B_x     ",
"     ____B%B_x   ____B%B_x      ",
"         BB_x        BB_x       ",
"         B_x         B_x        ",
"          x           x         ",
"                                ",
"                                ",
"                                ",
"                                ",
"                                ",
"      #   #             #       ",
"      ##  #             #       ",
"      # # #  ##  #   # ###      ",
"      #  ## #  #  # #   #       ",
"      #   # ####   #    #       ",
"      #   # #     # #   #       ",
"      #   #  ### #   #   #      ",
"                                ",
"                                ",
"                                "};
