/* XPM */
static char * previous_up_xpm[] = {
"32 32 8 1",
" 	c #B2B2B2 s backgroundToolBarColor",
"B	c #330099",
".	c #FFFFFF",
"%	c #EEEEEE",
"+	c #CCCCCC",
"x	c #AAAAAA",
"_	c #888888",
"#	c #000000 s foregroundToolBarColor",
"                                ",
"                                ",
"                                ",
"                                ",
"                                ",
"         B           B          ",
"        BB          BB          ",
"       B.B         B.B          ",
"      B.%BBBBBB   B.%BBBBBB     ",
"     B.%+%%%%%Bx B.%+%%%%%Bx    ",
"    B.%+++++++BxB.%+++++++Bx    ",
"    xB%+++++++B_xB%+++++++B_    ",
"    x_B%+BBBBBB_x_B%+BBBBBB_    ",
"     x_B%B______ x_B%B______    ",
"      x_BB_       x_BB_         ",
"       x_B_        x_B_         ",
"        x__         x__         ",
"                                ",
"                                ",
"                                ",
"                                ",
"                                ",
"     ####                       ",
"     #   #                      ",
"     #   # ###   ##  #   #      ",
"     ####  #  # #  # #   #      ",
"     #     #    #### #   #      ",
"     #     #    #     # #       ",
"     #     #     ###   #        ",
"                                ",
"                                ",
"                                "};
