/* XPM */
static char * quit_up_xpm[] = {
"32 32 5 1",
" 	c #B2B2B2 s backgroundToolBarColor",
"B	c #330099",
"_	c #888888",
"x	c #AAAAAA",
"#	c #000000 s foregroundToolBarColor",
"                                ",
"                                ",
"                                ",
"                                ",
"                                ",
"            BBBBBB              ",
"           Bx     B_            ",
"          Bx       Bx           ",
"         Bx   BB    Bx          ",
"         Bx   BBx   Bx          ",
"         Bx   BBx   Bx          ",
"         Bx   BBx   Bx          ",
"         Bx   BBx   Bx          ",
"         Bx   BBx   Bx          ",
"          Bx  BBx  Bx           ",
"           Bx  xx Bx            ",
"            BBBBBBx             ",
"             xxxxx              ",
"                                ",
"                                ",
"                                ",
"                                ",
"         ###          #         ",
"        #   #      #  #         ",
"        #   # #  #   ###        ",
"        #   # #  # #  #         ",
"        # # # #  # #  #         ",
"        #  #  # ## #  #         ",
"         ## #  # # #   #        ",
"                                ",
"                                ",
"                                "};
