/* XPM */
static char * recover_up_xpm[] = {
"32 32 3 1",
" 	c #B2B2B2 s backgroundToolBarColor",
"R	c #FF0000",
"#	c #000000 s foregroundToolBarColor",
"                                ",
"                                ",
"                                ",
"             RRRRR              ",
"             RRRRR              ",
"             RRRRR              ",
"             RRRRR              ",
"             RRRRR              ",
"        RRRRRRRRRRRRRRR         ",
"        RRRRRRRRRRRRRRR         ",
"        RRRRRRRRRRRRRRR         ",
"        RRRRRRRRRRRRRRR         ",
"        RRRRRRRRRRRRRRR         ",
"             RRRRR              ",
"             RRRRR              ",
"             RRRRR              ",
"             RRRRR              ",
"             RRRRR              ",
"                                ",
"                                ",
"                                ",
"                                ",
"   ####                         ",
"   #   #                        ",
"   #   #  ##   ##   ##  #   #   ",
"   ####  #  # #  # #  # #   #   ",
"   # #   #### #    #  # #   #   ",
"   #  #  #    #  # #  #  # #    ",
"   #   #  ###  ##   ##    #     ",
"                                ",
"                                ",
"                                "};
