/* XPM */
static char * reply_up_xpm[] = {
"32 32 8 1",
" 	c #B2B2B2 s backgroundToolBarColor",
"B	c #666666",
".	c #FFFFFF",
"_	c #888888",
"%	c #EEEEEE",
"x	c #AAAAAA",
"+	c #CCCCCC",
"#	c #808080",
"                                ",
"                                ",
"                                ",
"                                ",
"                                ",
"        B                       ",
"       BB BBBBBBBBBBBBBBBBBB    ",
"      B.B B................B_   ",
"     B.%BBBBBB..........BB.B_x  ",
"    B.%+%%%%%B..........BB.B_x  ",
"   B.%+++++++BxBBBBBB......B_x  ",
"    B%+++++++B_............B_x  ",
"   x_B%+BBBBBB_BBBBB.......B_x  ",
"    x_B%B______............B_x  ",
"     x_BB_BBBBBBBBBBBBBBBBBB_x  ",
"      x_B_ __________________x  ",
"       x__  xxxxxxxxxxxxxxxxxx  ",
"        x_                      ",
"         x                      ",
"                                ",
"                                ",
"                                ",
"     ####            #          ",
"     #   #           #          ",
"     #   #  ##  # #  #  #  #    ",
"     ####  #  # ## # #  #  #    ",
"     # #   #### #  # #  #  #    ",
"     #  #  #    ## # #  #  #    ",
"     #   #  ### # #   #  ###    ",
"                #          #    ",
"                #       ###     ",
"                                "};
