/* XPM */
static char * visit_up_xpm[] = {
"32 32 8 1",
" 	c #B2B2B2 s backgroundToolBarColor",
"B	c #330099",
".	c #FFFFFF",
"_	c #888888",
"x	c #AAAAAA",
"%	c #EEEEEE",
"+	c #CCCCCC",
"#	c #000000 s foregroundToolBarColor",
"                                ",
"                                ",
"                                ",
"                                ",
"                 BBB            ",
"         BB   BBB..B_ BBB       ",
"        B..BBB.....BBB__B_      ",
"       B........BBB_____B_x     ",
"       B...%%BBB_______B__x     ",
"       B..%%+B_____BB__B_xx     ",
"        B.%++B__BBB____B_x      ",
"        B%++B_________B__x      ",
"        B%++B__BBB____B_xx      ",
"         B++B_______BBB_x       ",
"         B+B_____BBB____x       ",
"         B+B__BBB____xxxx       ",
"          BBBB____xxxx          ",
"           ____ xxx             ",
"            xxxx                ",
"                                ",
"                                ",
"                                ",
"       #   #           #        ",
"       #   # #      #  #        ",
"       #   #    ###   ###       ",
"        # #  # #    #  #        ",
"        # #  #  ##  #  #        ",
"        # #  #    # #  #        ",
"         #   # ###  #   #       ",
"                                ",
"                                ",
"                                "};
