/* XPM */
static char * clip_xpm[] = {
"22 22 5 1",
" 	c None",
"B	c #330099",
".	c #FFFFFF",
"_	c #888888",
"x	c #AAAAAA",
"                      ",
"                      ",
"     BBB              ",
"    BB BB             ",
"   BB   BB            ",
"  BB     BB           ",
"  B_   B_ BB          ",
"   B_   B_ BB         ",
" B_ B_   B_ BB        ",
"  B_ B_   B_ BB       ",
"   B_ B_   B_ BB      ",
"    B_ B_   B_ BB     ",
"     B_ B_   B_ BB    ",
"      B_ B_   B_ BB   ",
"       B_ B_   B_ B_  ",
"        B_ B_  B_ B_  ",
"         B_ BBBB_ B_  ",
"          B_ ____ B_  ",
"           B_     B_  ",
"            BBBBBBB_  ",
"             _______  ",
"                      ",
"                      "};
