/* XPM */
static char * clip_xpm[] = {
"22 22 5 1",
" 	c #B2B2B2 s backgroundToolBarColor",
"B	c #330099",
".	c #FFFFFF",
"_	c #888888",
"x	c #AAAAAA",
"     BB               ",
"     BBBB             ",
"     B  BBB           ",
"     B    B           ",
"     B    B           ",
"     B    B           ",
"  BBBB    B           ",
"_BBBBB____B___________",
"  BBB  BBBB           ",
"      BBBBB           ",
"       BBB            ",
"______________________",
"                BBB   ",
"               BBBBB  ",
"               BBBB   ",
"_______________B______",
"               B      ",
"               B      ",
"               B      ",
"_______________B______",
"               B      ",
"               B      "};
