/* XPM */
static char * image_xpm[] = {
"22 22 5 1",
" 	c None",
"B	c #330099",
".	c #FFFFFF",
"_	c #888888",
"x	c #AAAAAA",
"                      ",
"                      ",
"                      ",
"                      ",
"   xxx                ",
"   ___                ",
"  BBBBBBBBBBBBBBBB    ",
" B                B_  ",
" B x   x__x   BBB B_  ",
" B x  x_.._x  B.B B_  ",
" B x  _.BB._x BBB B_  ",
" B x  _.BB._x     B_  ",
" B x  x_.._x      B_  ",
" B x   x__x       B_  ",
" B                B_  ",
"  BBBBBBBBBBBBBBBB__  ",
"  _________________   ",
"                      ",
"                      ",
"                      ",
"                      ",
"                      "};
