/* XPM */
static char * message_xpm[] = {
"22 22 8 1",
" 	c None",
"B	c #330099",
"+	c #CCCCCC",
".	c #FFFFFF",
"_	c #888888",
"x	c #AAAAAA",
"%	c #EEEEEE",
"#	c #000000",
"                      ",
"                      ",
"                      ",
"                      ",
"                      ",
" BBBBBBBBBBBBBBBBBB   ",
" B................B_  ",
" B.............BB.B_x ",
" B.............BB.B_x ",
" B....BBBBBB......B_x ",
" B................B_x ",
" B....BBBBB.......B_x ",
" B................B_x ",
" BBBBBBBBBBBBBBBBBB_x ",
"  __________________x ",
"   xxxxxxxxxxxxxxxxxx ",
"                      ",
"                      ",
"                      ",
"                      ",
"                      ",
"                      "};
