/* XPM */
static char * documents_xpm[] = {
"32 32 5 1",
" 	c None",
"B	c #330099",
".	c #FFFFFF",
"_	c #888888",
"x	c #AAAAAA",
"                                ",
"  BBBBBBBBBBBBBBBBBB            ",
"  B................B_           ",
"  B..........B.B.B.B_           ",
"  B................B_BBBB       ",
"  B..BB.BB.........B_...B_      ",
"  B................B_.B.B_      ",
"  B..B.BBB.........B_...B_BBBB  ",
"  B................B_...B_...B_ ",
"  B................B_...B_.B.B_x",
"  B..BB.BB.B.B.BB..B_...B_...B_x",
"  B................B_...B_...B_x",
"  B..B.B.BBB.BB.B..B_...B_...B_x",
"  B................B_B..B_...B_x",
"  B..BB.BB.BB.B.B..B_...B_...B_x",
"  B................B_B..B_...B_x",
"  B..B.BB.B..BBBB..B_...B_B..B_x",
"  B................B_B..B_...B_x",
"  B................B_...B_B..B_x",
"  B.........B.BBB..B_B..B_...B_x",
"  B....BBBBB.......B_...B_B..B_x",
"  B................B_...B_...B_x",
"  BBBBBBBBBBBBBBBBBB_B..B_B..B_x",
"   __________________...B_...B_x",
"       B................B_...B_x",
"       BBBBBBBBBBBBBBBBBB_B..B_x",
"        __________________...B_x",
"            B................B_x",
"            BBBBBBBBBBBBBBBBBB_x",
"             __________________x",
"              xxxxxxxxxxxxxxxxxx",
"                                "};
