/* XPM */
static char * document_xpm[] = {
"32 32 5 1",
" 	c None",
"B	c #330099",
".	c #FFFFFF",
"_	c #888888",
"x	c #AAAAAA",
"                                ",
"                                ",
"                                ",
"                                ",
"       BBBBBBBBBBBBBBBBBB       ",
"       B................B_      ",
"       B..........B.B.B.B_x     ",
"       B................B_x     ",
"       B..BB.BB.........B_x     ",
"       B................B_x     ",
"       B..B.BBB.........B_x     ",
"       B................B_x     ",
"       B................B_x     ",
"       B..BB.BB.B.B.BB..B_x     ",
"       B................B_x     ",
"       B..B.B.BBB.BB.B..B_x     ",
"       B................B_x     ",
"       B..BB.BB.BB.B.B..B_x     ",
"       B................B_x     ",
"       B..B.BB.B..BBBB..B_x     ",
"       B................B_x     ",
"       B................B_x     ",
"       B.........B.BBB..B_x     ",
"       B....BBBBB.......B_x     ",
"       B................B_x     ",
"       BBBBBBBBBBBBBBBBBB_x     ",
"        __________________x     ",
"         xxxxxxxxxxxxxxxxxx     ",
"                                ",
"                                ",
"                                ",
"                                "};
