/* XPM */
static char * video_xpm[] = {
"22 22 5 1",
" 	c None",
"B	c #330099",
".	c #FFFFFF",
"_	c #888888",
"x	c #AAAAAA",
"                      ",
"                      ",
"                      ",
"                      ",
"                      ",
"                      ",
"BBBBBBBBBBBBBBBBBBBBBB",
"B B B B B B B B B B B ",
"BBBBBBBBBBBBBBBBBBBBBB",
"   B       B       B  ",
"_  B   _   B  ___  B _",
" _ B  __   B   _   B  ",
"_  B   _   B  ___  B _",
"   B       B       B  ",
"BBBBBBBBBBBBBBBBBBBBBB",
"B B B B B B B B B B B ",
"BBBBBBBBBBBBBBBBBBBBBB",
" _____________________",
"                      ",
"                      ",
"                      ",
"                      "};
