/* XPM */
static char * compose-up_xpm[] = {
"28 24 8 1",
" 	c none",
"B	c #666666",
"+	c #CCCCCC",
".	c #FFFFFF",
"_	c #888888",
"x	c #AAAAAA",
"%	c #EEEEEE",
"#	c #808080",
"                            ",
"                            ",
"                            ",
"    B                       ",
" B  B  B                    ",
"  B B B                     ",
"   BBB                      ",
"BBBBBBBBB                   ",
"   BBB                      ",
"  B B_B_BBBBBBBBBBBBBBB     ",
" B  B_.B..............B_    ",
"    Bx.............BB.B_x   ",
"     x.............BB.B_x   ",
"     B....BBBBBB......B_x   ",
"     B................B_x   ",
"     B....BBBBB.......B_x   ",
"     B................B_x   ",
"     BBBBBBBBBBBBBBBBBB_x   ",
"      __________________x   ",
"       xxxxxxxxxxxxxxxxxx   ",
"                            ",
"                            ",
"                            ",
"                            "};
