/* XPM */
static char * delete_up_xpm[] = {
"28 24 8 1",
" 	c none",
"B	c #666666",
".	c #FFFFFF",
"_	c #888888",
"x	c #AAAAAA",
"%	c #EEEEEE",
"+	c #CCCCCC",
"#	c #808080",
"                            ",
"                            ",
"                            ",
"                            ",
"                            ",
"                            ",
"          BBBBB             ",
"     BB   B...BB     BB_x   ",
"      _BB B%%%B.B  BB___x   ",
"      x__BB%++BBBBB__xxxx   ",
"       xx_BBB++BBB_xx       ",
"         xB__BB__B_x        ",
"          BBB__BBB_x        ",
"         BB__..__BBx        ",
"       BB_B..%%%%B_BB       ",
"     BB__xB%%++++B___BB_x   ",
"      _xx BBBBBBBB_xx___x   ",
"           ________x xxxx   ",
"            xxxxxxx         ",
"                            ",
"                            ",
"                            ",
"                            ",
"                            "};
