/* XPM */
static char * file_up_xpm[] = {
"28 24 9 1",
" 	c none",
"B	c #666666",
".	c #FFFFFF",
"_	c #888888",
"x	c #AAAAAA",
"%	c #EEEEEE",
"+	c #CCCCCC",
"=	c #666666",
"#	c #808080",
"                            ",
"                            ",
"                            ",
"                            ",
"       BBBBBBBBBBBBBB       ",
"       B  B......B  B_      ",
"       B  B......B_BB_x     ",
"       B  B.%%%%%B_xB_x     ",
"       B  B.%++++B_xB_x     ",
"       B  B.%++++B_xB_x     ",
"       B  BBBBBBBB_xB_x     ",
"       B   ________xB_x     ",
"       B    xxxxxxxxB_x     ",
"       B  BBBBBBBB  B_x     ",
"       B  B====B.B  B_x     ",
"       B  B====B.B  B_x     ",
"       xB B====B.B  B_x     ",
"        _BBBBBBBBBBBB_x     ",
"        x_____________x     ",
"         xxxxxxxxxxxxxx     ",
"                            ",
"                            ",
"                            ",
"                            "};
