/* XPM */
static char * followup_up_xpm[] = {
"28 24 8 1",
" 	c none",
"B	c #330099",
"_	c #888888",
"+	c #CCCCCC",
".	c #FFFFFF",
"%	c #EEEEEE",
"x	c #AAAAAA",
"#	c #000000 s foregroundToolBarColor",
"                            ",
"                            ",
"                            ",
"                            ",
"                            ",
"                            ",
"           B                ",
"    B  B  BB_BBBBBBBBBBBBBB ",
"   B% B% B.B..............B_",
"  B%xB%xB.%BBBBBB......BB.B_",
" B%xB%xB.%+%%%%%B......BB.B_",
"B%xB%xB.%+++++++BxBB......B_",
" B%xB%xB%+++++++B_........B_",
" _B%xB%xB%%BBBBBB_B.......B_",
"  _B%xB%xB%B______........B_",
"   _B%xB%xBB_BBBBBBBBBBBBBB_",
"    _______B________________",
"     xx xx __xxxxxxxxxxxxxxx",
"                            ",
"                            ",
"                            ",
"                            ",
"                            ",
"                            "};
