/* XPM */
static char * forward_up_xpm[] = {
"28 24 8 1",
" 	c none",
"B	c #330099",
".	c #FFFFFF",
"_	c #888888",
"%	c #EEEEEE",
"+	c #CCCCCC",
"x	c #AAAAAA",
"#	c #000000 s foregroundToolBarColor",
"                            ",
"                            ",
"                            ",
"                            ",
"                            ",
"                            ",
"                     B      ",
"  BBBBBBBBBBBBBBBBBB BB     ",
"  B................B_B%B    ",
"  B.BB..........BBBBBB%%B   ",
"  B.............B%%%%%+%%B  ",
"  B....BBBBBB...B%++++++%%B ",
"  B.............B%++++++%B_x",
"  B....BBBBB....BBBBBB+%B_x ",
"  B..............____B%B_x  ",
"  BBBBBBBBBBBBBBBBBB_BB_x   ",
"   __________________B_x    ",
"    xxxxxxxxxxxxxxxxxxx     ",
"                            ",
"                            ",
"                            ",
"                            ",
"                            ",
"                            "};
