/* XPM */
static char * mime_up_xpm[] = {
"28 24 5 1",
" 	c none",
"B	c #330099",
"x	c #AAAAAA",
"+	c #CCCCCC",
"#	c #000000 s foregroundToolBarColor",
"                            ",
"                            ",
"                            ",
"                            ",
"                            ",
"     BB         B    B      ",
"  BB BB  BB BB BBB  BB      ",
"     B   BB B   B    B      ",
"                            ",
"  xx x x x x x x xxx xx x   ",
"  x  x xx xx           x    ",
"   x  x x x  x x x x x x  x ",
"                            ",
"     BB        B    BBB     ",
"  BB BB BB BB BBB    B  BB  ",
"     B  BB B   B    BBB     ",
"                            ",
"  xx x x xxx x  x x x  xx   ",
"    xxx x x x x xx x x x x  ",
"                            ",
"                            ",
"                            ",
"                            ",
"                            "};
