/* XPM */
static char * mime_up_xpm[] = {
"28 24 5 1",
" 	c none",
"B	c #330099",
"x	c #AAAAAA",
"+	c #CCCCCC",
"#	c #000000 s foregroundToolBarColor",
"                            ",
"                            ",
"                            ",
"                            ",
"   #              #      #  ",
"   #              #      #  ",
"  ###  ##  #   # ###    #   ",
"   #  #  #  # #   #     #   ",
"   #  ###    #    #     #   ",
"   #  #     # #   #    #    ",
"    #  ### #   #   #   #    ",
"                            ",
"                            ",
"          #                 ",
"          #                 ",
"     ###  #   ##  # ###     ",
"     #  # #     #   #  #    ",
"     #  # #   ### # #  #    ",
"     #  # #  #  # # #  #    ",
"     ###   #  ### # #  #    ",
"     #                      ",
"     #                      ",
"                            ",
"                            ",
"                                "};
