/* XPM */
static char * next_up_xpm[] = {
"28 24 7 1",
" 	c none",
"B	c #330099",
"%	c #EEEEEE",
"+	c #CCCCCC",
"_	c #888888",
"x	c #AAAAAA",
"#	c #000000 s foregroundToolBarColor",
"                            ",
"                            ",
"                            ",
"                            ",
"                            ",
"                            ",
"       B           B        ",
"       BB          BB       ",
"       B%B         B%B      ",
"  BBBBBB%%B   BBBBBB%%B     ",
"  B%%%%%+%%B  B%%%%%+%%B    ",
"  B%++++++%%B B%++++++%%B   ",
"  B%++++++%B_xB%++++++%B_x  ",
"  BBBBBB+%B_x BBBBBB+%B_x   ",
"   ____B%B_x   ____B%B_x    ",
"       BB_x        BB_x     ",
"       B_x         B_x      ",
"        x           x       ",
"                            ",
"                            ",
"                            ",
"                            ",
"                            ",
"                            "};
