/* XPM */
static char * previous_up_xpm[] = {
"28 24 8 1",
" 	c none",
"B	c #666666",
".	c #FFFFFF",
"%	c #EEEEEE",
"+	c #CCCCCC",
"x	c #AAAAAA",
"_	c #888888",
"#	c #808080",
"                            ",
"                            ",
"                            ",
"                            ",
"                            ",
"                            ",
"       B           B        ",
"      BB          BB        ",
"     B.B         B.B        ",
"    B.%BBBBBB   B.%BBBBBB   ",
"   B.%+%%%%%Bx B.%+%%%%%Bx  ",
"  B.%+++++++BxB.%+++++++Bx  ",
"  xB%+++++++B_xB%+++++++B_  ",
"  x_B%+BBBBBB_x_B%+BBBBBB_  ",
"   x_B%B______ x_B%B______  ",
"    x_BB_       x_BB_       ",
"     x_B_        x_B_       ",
"      x__         x__       ",
"                            ",
"                            ",
"                            ",
"                            ",
"                            ",
"                            "};
