/* XPM */
static char * print_up_xpm[] = {
"28 24 8 1",
" 	c none",
"B	c #330099",
".	c #FFFFFF",
"%	c #EEEEEE",
"x	c #AAAAAA",
"+	c #CCCCCC",
"_	c #888888",
"#	c #000000 s foregroundToolBarColor",
"                            ",
"                            ",
"                            ",
"                            ",
"         BBBBBBBBB          ",
"         B.%%%%%%B          ",
"         B.BBBBB%B          ",
"         B.%%%%%%B          ",
"         B.BBBBB%B          ",
"         B.%%%%%%B          ",
"      BBBBBBBBBBBBBBB       ",
"      B.............Bx      ",
"      B.  ++++++++++B_x     ",
"      B.++++++++++++B_x     ",
"      B.++++++++++++B_x     ",
"      BBBBBBBBBBBBBBB_x     ",
"       B+_+_+_+_+_+B__x     ",
"       BBBBBBBBBBBBB_xx     ",
"        x____________x      ",
"         xxxxxxxxxxxxx      ",
"                            ",
"                            ",
"                            ",
"                            "};
