/* XPM */
static char * quit_up_xpm[] = {
"28 24 5 1",
" 	c none",
"B	c #666666",
"_	c #888888",
"x	c #AAAAAA",
"#	c #808080",
"                            ",
"                            ",
"                            ",
"                            ",
"                            ",
"                            ",
"          BBBBBB            ",
"         Bx     B_          ",
"        Bx       Bx         ",
"       Bx   BB    Bx        ",
"       Bx   BBx   Bx        ",
"       Bx   BBx   Bx        ",
"       Bx   BBx   Bx        ",
"       Bx   BBx   Bx        ",
"       Bx   BBx   Bx        ",
"        Bx  BBx  Bx         ",
"         Bx  xx Bx          ",
"          BBBBBBx           ",
"           xxxxx            ",
"                            ",
"                            ",
"                            ",
"                            ",
"                            "};
