/* XPM */
static char * recover_up_xpm[] = {
"28 24 3 1",
" 	c none",
"R	c #FF0000",
"#	c #000000 s foregroundToolBarColor",
"                            ",
"                            ",
"                            ",
"                            ",
"           RRRRR            ",
"           RRRRR            ",
"           RRRRR            ",
"           RRRRR            ",
"           RRRRR            ",
"      RRRRRRRRRRRRRRR       ",
"      RRRRRRRRRRRRRRR       ",
"      RRRRRRRRRRRRRRR       ",
"      RRRRRRRRRRRRRRR       ",
"      RRRRRRRRRRRRRRR       ",
"           RRRRR            ",
"           RRRRR            ",
"           RRRRR            ",
"           RRRRR            ",
"           RRRRR            ",
"                            ",
"                            ",
"                            ",
"                            ",
"                            "};
