/* XPM */
static char * recover_up_xpm[] = {
"28 24 3 1",
" 	c none",
"R	c #666666",
"#	c #808080",
"                            ",
"                            ",
"                            ",
"                            ",
"           RRRRR            ",
"           RRRRR            ",
"           RRRRR            ",
"           RRRRR            ",
"           RRRRR            ",
"      RRRRRRRRRRRRRRR       ",
"      RRRRRRRRRRRRRRR       ",
"      RRRRRRRRRRRRRRR       ",
"      RRRRRRRRRRRRRRR       ",
"      RRRRRRRRRRRRRRR       ",
"           RRRRR            ",
"           RRRRR            ",
"           RRRRR            ",
"           RRRRR            ",
"           RRRRR            ",
"                            ",
"                            ",
"                            ",
"                            ",
"                            "};
