/* XPM */
static char * undelete_up_xpm[] = {
"28 24 8 1",
" 	c none",
"B	c #330099",
".	c #FFFFFF",
"x	c #AAAAAA",
"%	c #EEEEEE",
"_	c #888888",
"+	c #CCCCCC",
"#	c #000000 s foregroundToolBarColor",
"                            ",
"                            ",
"                            ",
"                            ",
"                            ",
"                            ",
"          BBBBB             ",
"     B    B...BB     B  x   ",
"       B  B%%%B.B  B    x   ",
"         BB%..BBBB     xx   ",
"          BB...B.B_x        ",
"          B..B...B_x        ",
"          BB...B.B_x        ",
"         BB.%%%%%B_x        ",
"       B  B%+++++B_B        ",
"     B    B%+++++B_  B  x   ",
"          BBBBBBBB_x    x   ",
"           ________x   xx   ",
"            xxxxxxx         ",
"                            ",
"                            ",
"                            ",
"                            ",
"                            "};
